HIERARCHY
ROOT root
{
	OFFSET	0	13.1	24.9
	CHANNELS 6  Xposition Yposition Zposition Xrotation Yrotation Zrotation
	JOINT spine_1
	{
		OFFSET	0	9.99999	0
		CHANNELS 3  Xrotation Yrotation Zrotation
		JOINT spine_2
		{
			OFFSET	0	112	-10
			CHANNELS 3  Xrotation Yrotation Zrotation
			JOINT spine_3
			{
				OFFSET	0	206.5	19.3
				CHANNELS 3  Xrotation Yrotation Zrotation
				JOINT spine_4
				{
					OFFSET	0	110.4	14.6
					CHANNELS 3  Xrotation Yrotation Zrotation
					JOINT neck_1
					{
						OFFSET	0	71.8	-50.3
						CHANNELS 3  Xrotation Yrotation Zrotation
						JOINT neck_2
						{
							OFFSET	0	86.2	-25.8
							CHANNELS 3  Xrotation Yrotation Zrotation
							JOINT head_ee
							{
								OFFSET	0	179.8	-8.7
								CHANNELS 3  Xrotation Yrotation Zrotation
								End Site
								{
									OFFSET	1	0	0
								}
							}
						}
					}
					JOINT left_clavicle
					{
						OFFSET	-43.2	22.4	-70.8
						CHANNELS 3  Xrotation Yrotation Zrotation
						JOINT left_shoulder
						{
							OFFSET	-93.9	-5.79999	48.7
							CHANNELS 3  Xrotation Yrotation Zrotation
							JOINT left_elbow
							{
								OFFSET	-291.4	-30.8	15.2
								CHANNELS 3  Xrotation Yrotation Zrotation
								JOINT left_lowarm_twist
								{
									OFFSET	-110.7	-3.89999	13.6
									CHANNELS 3  Xrotation Yrotation Zrotation
									JOINT left_hand
									{
										OFFSET	-110.7	-3.89999	13.6
										CHANNELS 3  Xrotation Yrotation Zrotation
										JOINT left_ee
										{
											OFFSET	-80.8	-5.10001	12.1
											CHANNELS 3  Xrotation Yrotation Zrotation
											End Site
											{
												OFFSET	1	0	0
											}
										}
									}
								}
							}
						}
					}
					JOINT right_clavicle
					{
						OFFSET	43.2	22.4	-70.8
						CHANNELS 3  Xrotation Yrotation Zrotation
						JOINT right_shoulder
						{
							OFFSET	93.9	-5.79999	48.7
							CHANNELS 3  Xrotation Yrotation Zrotation
							JOINT right_elbow
							{
								OFFSET	291.4	-30.8	15.2
								CHANNELS 3  Xrotation Yrotation Zrotation
								JOINT right_lowarm_twist
								{
									OFFSET	110.7	-3.89999	13.6
									CHANNELS 3  Xrotation Yrotation Zrotation
									JOINT right_hand
									{
										OFFSET	110.7	-3.89999	13.6
										CHANNELS 3  Xrotation Yrotation Zrotation
										JOINT right_ee
										{
											OFFSET	80.8	-5.10001	12.1
											CHANNELS 3  Xrotation Yrotation Zrotation
											End Site
											{
												OFFSET	1	0	0
											}
										}
									}
								}
							}
						}
					}
				}
			}
		}
	}
	JOINT left_hip
	{
		OFFSET	-82.8	-127.5	0.300001
		CHANNELS 3  Xrotation Yrotation Zrotation
		JOINT left_knee
		{
			OFFSET	-28.2	-396.7	2.2
			CHANNELS 3  Xrotation Yrotation Zrotation
			JOINT left_ankle
			{
				OFFSET	-11.7	-411.3	35.4
				CHANNELS 3  Xrotation Yrotation Zrotation
				JOINT left_toes
				{
					OFFSET	0	-60	-88.6
					CHANNELS 3  Xrotation Yrotation Zrotation
					JOINT left_foot_ee
					{
						OFFSET	-22.5	-16.5	-42.2
						CHANNELS 3  Xrotation Yrotation Zrotation
						End Site
						{
							OFFSET	1	0	0
						}
					}
				}
			}
		}
	}
	JOINT right_hip
	{
		OFFSET	82.8	-127.5	0.300001
		CHANNELS 3  Xrotation Yrotation Zrotation
		JOINT right_knee
		{
			OFFSET	28.2	-396.7	2.2
			CHANNELS 3  Xrotation Yrotation Zrotation
			JOINT right_ankle
			{
				OFFSET	11.7	-411.3	35.4
				CHANNELS 3  Xrotation Yrotation Zrotation
				JOINT right_toes
				{
					OFFSET	0	-60	-88.6
					CHANNELS 3  Xrotation Yrotation Zrotation
					JOINT right_foot_ee
					{
						OFFSET	22.5	-16.5	-42.2
						CHANNELS 3  Xrotation Yrotation Zrotation
						End Site
						{
							OFFSET	1	0	0
						}
					}
				}
			}
		}
	}
}
MOTION
Frames: 11
Frame Time: 0.02
2788.6 746.262 -1410.85 -5.84198 60.3686 -2.25307 3.4653 0.431028 3.18722 3.47093 0.22745 3.20816 3.48122 -0.257869 3.20586 3.46696 0.251405 3.20637 -12.8952 20.0689 4.56472 -13.7699 35.4019 10.7288 -0.0 0.0 -0.0 3.62012 11.1633 7.47353 -7.61589 -22.0167 44.2692 2.06486 -45.6423 0.86896 -32.7948 -2.2195 3.49664 -2.72518 12.5483 -12.1106 -0.0 0.0 -0.0 11.2901 21.6923 -22.1829 -21.4561 24.2958 -68.4753 0.159263 4.51107 -0.00627289 -10.0981 0.463217 -1.20341 2.77818 7.75271 -15.6554 0.0 0.0 0.0 0.457812 3.05945 14.1664 -0.0703174 0.00288905 0.0104041 29.528 18.6995 -3.93017 -21.2747 0.0 0.0 -0.0 0.0 -0.0 24.9801 23.0044 5.28877 -56.3029 1.81427 -8.10569 18.7251 -13.7373 2.58803 -7.70032 0.0 0.0 0.0 0.0 0.0 
2776.65 753.075 -1410.06 -4.77774 59.7184 -3.19429 3.30304 0.505952 3.30115 3.30906 0.294985 3.32662 3.32386 -0.218004 3.33254 3.3085 0.310746 3.32519 -12.6714 20.0443 3.53717 -13.5738 35.9499 9.69776 -0.0 0.0 -0.0 3.52011 10.9283 7.29447 -5.78578 -20.7953 43.0782 2.35638 -49.4064 1.08409 -32.9894 -2.23829 3.51305 -2.77442 12.2876 -12.5667 -0.0 0.0 -0.0 11.5031 21.6773 -22.6689 -22.7717 21.7468 -67.6603 0.15272 4.32646 -0.00576878 -9.8397 0.448744 -1.1737 2.52691 7.94989 -13.8161 0.0 0.0 0.0 -0.415971 1.31033 13.4515 1.13721 -0.0484966 -0.167767 24.8404 19.9502 -3.40276 -22.786 0.0 0.0 -0.0 0.0 -0.0 25.6113 21.9904 4.2483 -49.5108 1.17983 -7.27418 17.9552 -10.8326 2.47879 -7.90974 0.0 0.0 0.0 0.0 0.0 
2767.51 750.559 -1408.87 -5.00533 59.8706 -2.79068 3.08538 0.369328 3.31372 3.09148 0.157838 3.33048 3.09861 -0.367399 3.31394 3.08332 0.160286 3.33037 -12.6278 19.9011 3.12391 -13.5309 35.9247 9.24886 -0.0 0.0 -0.0 3.34866 10.8748 6.99855 -3.69783 -19.9999 41.9175 2.6959 -53.1648 1.34916 -33.0773 -2.2468 3.52045 -2.84059 12.7498 -12.7504 -0.0 0.0 -0.0 11.4441 22.0102 -22.5067 -23.9052 19.5507 -67.1397 0.15144 4.29033 -0.00567258 -10.8477 0.505972 -1.28925 2.09392 2.67478 -13.0503 0.0 0.0 0.0 -1.61937 0.973159 13.0258 2.86294 -0.128439 -0.420474 23.1932 20.3633 -3.20726 -23.5935 0.0 0.0 -0.0 0.0 -0.0 26.9441 21.292 3.08601 -45.4451 0.849008 -6.7431 16.8288 -10.5665 2.33369 -8.27133 0.0 0.0 0.0 0.0 0.0 
2759.95 745.877 -1414.23 -5.77006 59.5956 -1.44411 3.08487 0.356617 3.23956 3.09069 0.149864 3.25567 3.09726 -0.363588 3.23879 3.08265 0.152201 3.25556 -12.1717 19.9788 2.96973 -13.0131 36.0966 8.96233 -0.0 0.0 -0.0 2.91845 10.3212 6.23454 -0.930924 -20.3029 40.3878 2.94301 -55.5417 1.55001 -32.4632 -2.18758 3.46852 -2.89233 12.6107 -13.16 -0.0 0.0 -0.0 11.7132 21.59 -23.1556 -25.2656 17.713 -66.3295 0.154698 4.38228 -0.0059189 -11.0713 0.518942 -1.31475 1.75158 -2.09037 -12.6132 0.0 0.0 0.0 -4.24445 2.19588 13.775 4.99939 -0.237917 -0.72988 26.6081 22.478 -3.65544 -24.8178 0.0 0.0 -0.0 0.0 -0.0 31.1292 20.2781 0.162041 -40.1897 0.47888 -6.02482 13.8463 -9.22124 1.94127 -9.20067 0.0 0.0 0.0 0.0 0.0 
2749.82 746.242 -1412.94 -5.07437 58.4599 -2.36752 2.95283 0.362196 3.47685 2.95954 0.140359 3.49282 2.96607 -0.418285 3.47055 2.94929 0.134728 3.49304 -13.0275 19.9258 2.96027 -14.0143 36.1341 9.26198 -0.0 0.0 -0.0 2.6384 10.3965 5.75631 1.83762 -20.1077 39.8247 3.16801 -57.4818 1.73769 -31.9737 -2.14078 3.42668 -3.09906 12.677 -14.4699 -0.0 0.0 -0.0 11.8745 21.2977 -23.5482 -26.1824 16.4886 -65.7976 0.153287 4.34246 -0.00581157 -10.7541 0.500574 -1.27857 1.62163 -3.39154 -12.2378 0.0 0.0 0.0 -5.67046 3.08375 14.3916 5.40682 -0.260105 -0.78842 25.9433 23.1519 -3.58789 -25.8598 0.0 0.0 -0.0 0.0 -0.0 33.645 19.4794 -1.12796 -35.4589 0.203423 -5.35217 11.7316 -9.52918 1.65808 -10.0941 0.0 0.0 0.0 0.0 0.0 
2736.9 743.041 -1410.77 -5.84972 56.5803 -2.1149 2.99431 0.648183 3.75235 3.00205 0.408273 3.78592 3.02673 -0.196018 3.8028 3.00678 0.406582 3.7861 -10.8643 19.5262 1.05026 -11.5201 36.2585 6.52232 -0.0 0.0 -0.0 2.62807 8.47763 5.62748 4.05568 -20.0522 38.084 3.22823 -57.9683 1.78859 -31.5314 -2.0988 3.38853 -3.10978 14.4187 -13.5816 -0.0 0.0 -0.0 11.9608 21.0364 -23.7667 -27.0687 15.4809 -65.1233 0.150541 4.26497 -0.00560551 -11.4324 0.540097 -1.35582 1.27131 -8.20865 -11.7246 0.0 0.0 0.0 -6.32999 1.42222 14.5882 6.66664 -0.331345 -0.968434 27.9674 22.5156 -3.81695 -26.8766 0.0 0.0 -0.0 0.0 -0.0 34.7581 19.0188 -1.97685 -30.2857 -0.0330181 -4.59389 9.37977 -3.84413 1.33948 -10.3075 0.0 0.0 0.0 0.0 0.0 
2727.94 741.16 -1410.93 -5.79897 57.2855 -2.19957 2.9397 0.410663 3.812 2.94777 0.167445 3.83037 2.95656 -0.446058 3.80803 2.93637 0.16049 3.83067 -12.2368 19.7374 1.84852 -13.1222 36.3466 7.86441 -0.0 0.0 -0.0 2.29672 9.44363 5.10741 7.29286 -20.2291 38.6197 3.51814 -60.1381 2.03728 -31.3642 -2.08301 3.37402 -3.19529 12.8275 -15.016 -0.0 0.0 -0.0 12.0525 20.5617 -24.0135 -27.5944 13.8418 -64.6527 0.148103 4.19614 -0.00542572 -11.2353 0.528519 -1.33342 1.13676 -10.2864 -11.6113 0.0 0.0 0.0 -7.32242 2.67175 15.0848 6.88495 -0.344092 -0.999468 27.7422 22.4597 -3.78946 -28.0831 0.0 0.0 -0.0 0.0 -0.0 36.3481 18.5752 -3.41321 -25.2363 -0.196858 -3.83653 8.26188 -7.03987 1.1814 -11.5244 0.0 0.0 0.0 0.0 0.0 
2720.44 739.52 -1410.88 -6.27242 57.4856 -1.60543 2.93691 0.354585 3.77622 2.94483 0.113752 3.7911 2.94998 -0.493328 3.76063 2.93027 0.106343 3.79132 -11.7757 19.7943 1.75817 -12.5894 36.4463 7.62372 -0.0 0.0 -0.0 2.1277 9.492 4.81678 8.54798 -20.3479 38.3472 3.63628 -60.9473 2.14015 -31.0407 -2.05257 3.34582 -3.22349 12.9308 -15.1431 -0.0 0.0 -0.0 12.1332 20.3088 -24.2178 -27.9482 12.6113 -64.0285 0.146922 4.16281 -0.0053397 -11.3431 0.534844 -1.34568 0.983518 -12.3068 -11.3576 0.0 0.0 0.0 -8.19857 4.22446 15.7296 7.49438 -0.380305 -1.08585 28.5997 21.3348 -3.86844 -28.2478 0.0 0.0 -0.0 0.0 -0.0 37.4508 18.1477 -4.31137 -20.7317 -0.286222 -3.15124 6.5627 -6.13431 0.943918 -12.1826 0.0 0.0 0.0 0.0 0.0 
2709.36 732.954 -1411.15 -6.38036 57.0482 -1.49535 2.93726 0.393008 3.82866 2.9454 0.148769 3.84587 2.95296 -0.467257 3.82032 2.93262 0.141494 3.84615 -12.7432 19.5509 1.60126 -13.7092 36.2121 7.76165 -0.0 0.0 -0.0 1.44285 9.43946 3.62311 9.99063 -20.853 38.0226 3.92576 -62.7694 2.39544 -30.8485 -2.03457 3.329 -3.19784 12.8299 -15.0313 -0.0 0.0 -0.0 12.2342 19.9367 -24.4769 -28.6682 10.7789 -63.6775 0.170835 4.83734 -0.00721589 -11.4802 0.54292 -1.36125 0.804025 -14.1697 -10.8871 0.0 0.0 0.0 -8.48904 4.02732 16.1856 7.5242 -0.382101 -1.09007 31.1939 20.3948 -4.14351 -28.7526 0.0 0.0 -0.0 0.0 -0.0 38.4215 17.7533 -5.31401 -15.4594 -0.322076 -2.34337 5.25267 -3.53122 0.760523 -12.6574 0.0 0.0 0.0 0.0 0.0 
2694.64 732.201 -1411.62 -7.24211 57.1087 -0.486248 2.84622 0.446031 3.80726 2.85426 0.203043 3.82788 2.86566 -0.416496 3.8106 2.84545 0.190088 3.82855 -11.0929 18.255 0.18322 -11.7063 34.4338 5.36989 -0.0 0.0 -0.0 1.15045 10.9592 3.25292 12.7157 -21.195 39.9006 4.12376 -63.8981 2.57239 -32.1609 -2.15863 3.44272 -3.1157 13.1717 -14.3069 -0.0 0.0 -0.0 12.0527 19.0318 -24.1203 -28.7556 9.40537 -63.5847 0.187683 5.31181 -0.00870616 -10.884 0.508073 -1.2934 0.25232 -19.8694 -9.54361 0.0 0.0 0.0 -8.41145 3.90827 16.4284 7.22783 -0.364353 -1.04812 32.3847 17.7454 -4.22743 -30.3872 0.0 0.0 -0.0 0.0 -0.0 37.9326 17.8064 -6.0859 -5.00673 -0.173521 -0.748548 -0.425434 -0.890536 -0.062865 -16.7292 0.0 0.0 0.0 0.0 0.0 
2674.84 726.723 -1413.13 -6.86968 56.9184 -0.456615 2.84701 0.513469 3.69843 2.85458 0.277254 3.72356 2.8706 -0.325931 3.71962 2.85139 0.265185 3.72444 -8.75055 17.9519 -1.64795 -9.00457 34.8021 2.69434 -0.0 0.0 -0.0 0.541822 12.6199 2.38974 14.3333 -21.9533 41.2353 4.55834 -66.0917 2.96632 -32.8974 -2.22939 3.5053 -2.67191 12.7638 -11.6538 -0.0 0.0 -0.0 12.087 19.0943 -24.1951 -29.9063 6.8372 -63.9967 0.188593 5.33741 -0.00879064 -10.4462 0.482935 -1.24335 -0.325672 -24.1262 -7.73051 0.0 0.0 0.0 -8.31372 4.53967 16.7076 4.30434 -0.201032 -0.629662 35.7431 16.0073 -4.54591 -30.7056 0.0 0.0 -0.0 0.0 -0.0 36.6196 17.1531 -6.76358 1.60724 0.0695137 0.236828 -2.79813 3.66875 -0.421549 -19.0953 0.0 0.0 0.0 0.0 0.0 
